<svg height="512pt" viewBox="0 -73 512 512" width="512pt" xmlns="http://www.w3.org/2000/svg"><path d="m402.585938 119.0625v-90.144531c0-15.945313-12.972657-28.917969-28.917969-28.917969h-70.839844c-5.523437 0-10 4.476562-10 10s4.476563 10 10 10h70.839844c4.917969 0 8.917969 4 8.917969 8.917969v89.464843c-45.46875 2.109376-84.601563 28.890626-104.277344 67.238282l-28.46875-40.140625c-1.871094-2.636719-4.90625-4.207031-8.140625-4.214844h-.019531c-3.226563 0-6.257813 1.558594-8.132813 4.1875l-72.71875 101.75-34.855469-48.777344c-1.878906-2.625-4.910156-4.183593-8.136718-4.183593-3.230469 0-6.261719 1.558593-8.136719 4.183593l-80.210938 112.242188c-2.179687 3.046875-2.46875 7.058593-.757812 10.386719 1.714843 3.332031 5.148437 5.425781 8.894531 5.425781h84.984375c.171875 0 .339844-.003907.503906-.011719.164063.007812.332031.011719.5.011719h174.703125c6.773438 7.203125 14.394532 13.59375 22.707032 19.015625h-292.105469c-4.917969 0-8.917969-4-8.917969-8.917969v-307.660156c0-4.917969 4-8.917969 8.917969-8.917969h183.867187c5.523438 0 10-4.476562 10-10s-4.476562-10-10-10h-183.867187c-15.945313 0-28.917969 12.972656-28.917969 28.917969v307.660156c0 15.945313 12.972656 28.917969 28.917969 28.917969h359.457031c68.167969 0 123.625-55.457032 123.625-123.621094 0-63.363281-47.914062-115.742188-109.414062-122.8125zm-284.75 102.378906 30.703124 42.960938-30.070312 42.078125h-61.40625zm25.214843 85.039063 98.601563-137.972657 27.871094 39.296876c-3.105469 10.828124-4.769532 22.257812-4.769532 34.066406 0 23.664062 6.679688 45.796875 18.261719 64.609375zm245.324219 39.015625c-57.136719 0-103.625-46.484375-103.625-103.621094 0-57.140625 46.488281-103.625 103.625-103.625 57.140625 0 103.625 46.484375 103.625 103.625 0 57.136719-46.484375 103.621094-103.625 103.621094zm0 0"/><path d="m439.898438 270.191406h-103.042969c-5.523438 0-10-4.476562-10-10v-36.636718c0-5.523438 4.476562-10 10-10h103.039062c5.523438 0 10 4.476562 10 10v36.636718c.003907 5.523438-4.476562 10-9.996093 10zm-93.042969-20h83.039062v-16.636718h-83.039062zm0 0"/><path d="m131.945312 153.191406c-30.707031 0-55.6875-24.980468-55.6875-55.6875 0-30.703125 24.980469-55.6875 55.6875-55.6875 30.703126 0 55.6875 24.980469 55.6875 55.6875 0 30.707032-24.984374 55.6875-55.6875 55.6875zm0-91.375c-19.679687 0-35.6875 16.007813-35.6875 35.6875 0 19.679688 16.007813 35.6875 35.6875 35.6875 19.675782 0 35.6875-16.007812 35.6875-35.6875 0-19.675781-16.011718-35.6875-35.6875-35.6875zm0 0"/><path d="m257.828125 20c-4.167969 0-7.992187-2.695312-9.402344-6.617188-1.378906-3.824218-.246093-8.21875 2.808594-10.902343 3.230469-2.835938 8.042969-3.246094 11.730469-1.050781 3.554687 2.113281 5.46875 6.386718 4.683594 10.449218-.898438 4.644532-5.078126 8.121094-9.820313 8.121094zm0 0"/></svg>