<svg viewBox="0 -28 511.99962 511" xmlns="http://www.w3.org/2000/svg"><path d="m219.609375 249h-172.015625c-4.148438 0-7.511719 3.363281-7.511719 7.515625 0 4.148437 3.363281 7.515625 7.511719 7.515625h172.015625c4.148437 0 7.515625-3.367188 7.515625-7.515625 0-4.152344-3.367188-7.515625-7.515625-7.515625zm0 0"/><path d="m312.128906 40.582031c-4.152344 0-7.515625 3.363281-7.515625 7.511719v144.890625l-66.53125-93.144531c-2.949219-4.125-9.285156-4.125-12.230469 0l-75.339843 105.476562-57.886719-50.652344c-2.832031-2.476562-7.0625-2.476562-9.898438 0l-36.644531 32.066407c-3.121093 2.734375-3.4375 7.480469-.707031 10.605469 2.734375 3.121093 7.480469 3.4375 10.605469.707031l31.695312-27.734375 59.179688 51.78125c3.296875 2.882812 8.523437 2.273437 11.066406-1.289063l74.042969-103.664062 72.648437 101.707031v30.15625h-48.933593c-4.148438 0-7.515626 3.363281-7.515626 7.515625 0 4.148437 3.367188 7.515625 7.515626 7.515625h56.449218c4.148438 0 7.511719-3.367188 7.511719-7.515625v-208.417969c0-4.152344-3.363281-7.515625-7.511719-7.515625zm0 0"/><path d="m151.804688 135.773438c17.40625 0 31.5625-14.160157 31.5625-31.566407 0-17.402343-14.15625-31.5625-31.5625-31.5625-17.402344 0-31.5625 14.160157-31.5625 31.5625 0 17.40625 14.160156 31.566407 31.5625 31.566407zm0-48.097657c9.117187 0 16.535156 7.417969 16.535156 16.53125 0 9.117188-7.417969 16.535157-16.535156 16.535157-9.117188 0-16.53125-7.417969-16.53125-16.535157 0-9.113281 7.414062-16.53125 16.53125-16.53125zm0 0"/><path d="m74.683594 321.144531h-12.304688c-4.152344 0-7.515625 3.363281-7.515625 7.515625 0 4.148438 3.363281 7.515625 7.515625 7.515625h12.304688c4.152344 0 7.515625-3.367187 7.515625-7.515625 0-4.152344-3.363281-7.515625-7.515625-7.515625zm0 0"/><path d="m119.8125 321.144531h-12.308594c-4.148437 0-7.515625 3.363281-7.515625 7.515625 0 4.148438 3.367188 7.515625 7.515625 7.515625h12.308594c4.148438 0 7.515625-3.367187 7.515625-7.515625 0-4.152344-3.367187-7.515625-7.515625-7.515625zm0 0"/><path d="m255.1875 321.144531h-12.304688c-4.152343 0-7.515624 3.363281-7.515624 7.515625 0 4.148438 3.363281 7.515625 7.515624 7.515625h12.304688c4.152344 0 7.515625-3.367187 7.515625-7.515625 0-4.152344-3.363281-7.515625-7.515625-7.515625zm0 0"/><path d="m345.441406 321.144531h-12.308594c-4.148437 0-7.511718 3.363281-7.511718 7.515625 0 4.148438 3.363281 7.515625 7.511718 7.515625h12.308594c4.152344 0 7.515625-3.367187 7.515625-7.515625 0-4.152344-3.363281-7.515625-7.515625-7.515625zm0 0"/><path d="m164.9375 321.144531h-12.308594c-4.148437 0-7.511718 3.363281-7.511718 7.515625 0 4.148438 3.363281 7.515625 7.511718 7.515625h12.308594c4.148438 0 7.515625-3.367187 7.515625-7.515625 0-4.152344-3.367187-7.515625-7.515625-7.515625zm0 0"/><path d="m300.316406 321.144531h-12.308594c-4.148437 0-7.515624 3.363281-7.515624 7.515625 0 4.148438 3.367187 7.515625 7.515624 7.515625h12.308594c4.152344 0 7.515625-3.367187 7.515625-7.515625 0-4.152344-3.367187-7.515625-7.515625-7.515625zm0 0"/><path d="m210.0625 321.144531h-12.304688c-4.152343 0-7.515624 3.363281-7.515624 7.515625 0 4.148438 3.363281 7.515625 7.515624 7.515625h12.304688c4.152344 0 7.515625-3.367187 7.515625-7.515625 0-4.152344-3.363281-7.515625-7.515625-7.515625zm0 0"/><path d="m23.546875 271.640625c-4.148437 0-7.515625 3.363281-7.515625 7.515625v11.859375c0 4.152344 3.367188 7.515625 7.515625 7.515625 4.152344 0 7.515625-3.363281 7.515625-7.515625v-11.859375c0-4.152344-3.363281-7.515625-7.515625-7.515625zm0 0"/><path d="m31.0625 235.664062c0-4.152343-3.363281-7.515624-7.515625-7.515624-4.148437 0-7.515625 3.363281-7.515625 7.515624v11.859376c0 4.152343 3.367188 7.515624 7.515625 7.515624 4.152344 0 7.515625-3.363281 7.515625-7.515624zm0 0"/><path d="m31.0625 192.167969c0-4.148438-3.363281-7.515625-7.515625-7.515625-4.148437 0-7.515625 3.367187-7.515625 7.515625v11.863281c0 4.148438 3.367188 7.515625 7.515625 7.515625 4.152344 0 7.515625-3.367187 7.515625-7.515625zm0 0"/><path d="m31.0625 61.691406c0-4.152344-3.363281-7.515625-7.515625-7.515625-4.148437 0-7.515625 3.363281-7.515625 7.515625v11.859375c0 4.152344 3.367188 7.515625 7.515625 7.515625 4.152344 0 7.515625-3.363281 7.515625-7.515625zm0 0"/><path d="m31.0625 105.183594c0-4.152344-3.363281-7.515625-7.515625-7.515625-4.148437 0-7.515625 3.363281-7.515625 7.515625v11.863281c0 4.148437 3.367188 7.511719 7.515625 7.511719 4.152344 0 7.515625-3.363282 7.515625-7.511719zm0 0"/><path d="m31.0625 148.675781c0-4.148437-3.363281-7.515625-7.515625-7.515625-4.148437 0-7.515625 3.367188-7.515625 7.515625v11.863281c0 4.148438 3.367188 7.515626 7.515625 7.515626 4.152344 0 7.515625-3.367188 7.515625-7.515626zm0 0"/><path d="m242.882812 31.5625h12.304688c4.152344 0 7.515625-3.363281 7.515625-7.515625 0-4.148437-3.363281-7.515625-7.515625-7.515625h-12.304688c-4.152343 0-7.515624 3.367188-7.515624 7.515625 0 4.152344 3.363281 7.515625 7.515624 7.515625zm0 0"/><path d="m152.628906 31.5625h12.308594c4.148438 0 7.515625-3.363281 7.515625-7.515625 0-4.148437-3.367187-7.515625-7.515625-7.515625h-12.308594c-4.148437 0-7.511718 3.367188-7.511718 7.515625 0 4.152344 3.363281 7.515625 7.511718 7.515625zm0 0"/><path d="m288.007812 31.5625h12.308594c4.152344 0 7.515625-3.363281 7.515625-7.515625 0-4.148437-3.363281-7.515625-7.515625-7.515625h-12.308594c-4.148437 0-7.515624 3.367188-7.515624 7.515625 0 4.152344 3.367187 7.515625 7.515624 7.515625zm0 0"/><path d="m197.757812 31.5625h12.304688c4.152344 0 7.515625-3.363281 7.515625-7.515625 0-4.148437-3.363281-7.515625-7.515625-7.515625h-12.304688c-4.152343 0-7.515624 3.367188-7.515624 7.515625 0 4.152344 3.363281 7.515625 7.515624 7.515625zm0 0"/><path d="m345.441406 16.53125h-12.308594c-4.148437 0-7.511718 3.367188-7.511718 7.515625 0 4.152344 3.363281 7.515625 7.511718 7.515625h12.308594c4.152344 0 7.515625-3.363281 7.515625-7.515625 0-4.148437-3.363281-7.515625-7.515625-7.515625zm0 0"/><path d="m107.503906 31.5625h12.308594c4.148438 0 7.515625-3.363281 7.515625-7.515625 0-4.148437-3.367187-7.515625-7.515625-7.515625h-12.308594c-4.148437 0-7.515625 3.367188-7.515625 7.515625 0 4.152344 3.367188 7.515625 7.515625 7.515625zm0 0"/><path d="m62.378906 31.5625h12.304688c4.152344 0 7.515625-3.363281 7.515625-7.515625 0-4.148437-3.363281-7.515625-7.515625-7.515625h-12.304688c-4.152344 0-7.515625 3.367188-7.515625 7.515625 0 4.152344 3.363281 7.515625 7.515625 7.515625zm0 0"/><path d="m391.789062 235.664062c0-4.152343-3.367187-7.515624-7.515624-7.515624-4.152344 0-7.515626 3.363281-7.515626 7.515624v11.859376c0 4.152343 3.363282 7.515624 7.515626 7.515624 4.148437 0 7.515624-3.363281 7.515624-7.515624zm0 0"/><path d="m391.789062 192.167969c0-4.148438-3.367187-7.515625-7.515624-7.515625-4.152344 0-7.515626 3.367187-7.515626 7.515625v11.863281c0 4.148438 3.363282 7.515625 7.515626 7.515625 4.148437 0 7.515624-3.367187 7.515624-7.515625zm0 0"/><path d="m391.789062 148.675781c0-4.148437-3.367187-7.515625-7.515624-7.515625-4.152344 0-7.515626 3.367188-7.515626 7.515625v11.863281c0 4.148438 3.363282 7.511719 7.515626 7.511719 4.148437 0 7.515624-3.363281 7.515624-7.511719zm0 0"/><path d="m384.273438 271.640625c-4.152344 0-7.515626 3.363281-7.515626 7.515625v11.859375c0 4.152344 3.363282 7.515625 7.515626 7.515625 4.148437 0 7.515624-3.363281 7.515624-7.515625v-11.859375c0-4.152344-3.367187-7.515625-7.515624-7.515625zm0 0"/><path d="m391.789062 105.183594c0-4.152344-3.367187-7.515625-7.515624-7.515625-4.152344 0-7.515626 3.363281-7.515626 7.515625v11.863281c0 4.148437 3.363282 7.511719 7.515626 7.511719 4.148437 0 7.515624-3.363282 7.515624-7.511719zm0 0"/><path d="m391.789062 61.691406c0-4.152344-3.367187-7.515625-7.515624-7.515625-4.152344 0-7.515626 3.363281-7.515626 7.515625v11.859375c0 4.152344 3.363282 7.515625 7.515626 7.515625 4.148437 0 7.515624-3.363281 7.515624-7.515625zm0 0"/><path d="m7.515625 47.59375h32.0625c4.152344 0 7.515625-3.363281 7.515625-7.515625v-32.0625c0-4.152344-3.363281-7.515625-7.515625-7.515625h-32.0625c-4.152344 0-7.515625 3.363281-7.515625 7.515625v32.0625c0 4.152344 3.363281 7.515625 7.515625 7.515625zm7.515625-32.0625h17.03125v17.03125h-17.03125zm0 0"/><path d="m368.238281 47.59375h32.066407c4.152343 0 7.515624-3.363281 7.515624-7.515625v-32.0625c0-4.152344-3.363281-7.515625-7.515624-7.515625h-32.066407c-4.148437 0-7.511719 3.363281-7.511719 7.515625v32.0625c0 4.152344 3.363282 7.515625 7.511719 7.515625zm7.515625-32.0625h17.035156v17.03125h-17.035156zm0 0"/><path d="m39.578125 305.113281h-32.0625c-4.152344 0-7.515625 3.363281-7.515625 7.515625v32.0625c0 4.152344 3.363281 7.515625 7.515625 7.515625h32.0625c4.152344 0 7.515625-3.363281 7.515625-7.515625v-32.0625c0-4.152344-3.363281-7.515625-7.515625-7.515625zm-7.515625 32.0625h-17.03125v-17.035156h17.03125zm0 0"/><path d="m509.828125 420.914062-28.695313-28.695312 11.691407-11.691406c3.882812-3.882813 2.261719-10.707032-2.9375-12.441406l-82.066407-27.355469v-28.101563c0-4.152344-3.363281-7.515625-7.515624-7.515625h-32.066407c-4.148437 0-7.511719 3.363281-7.511719 7.515625v32.0625c0 4.152344 3.363282 7.515625 7.511719 7.515625h28.101563l27.355468 82.066407c1.734376 5.199218 8.5625 6.820312 12.445313 2.9375l11.691406-11.691407 28.695313 28.695313c3.054687 3.058594 8.21875 2.851562 11.027344-.429688 2.519531-2.941406 2.335937-7.460937-.398438-10.195312l-34.007812-34.011719c-2.9375-2.933594-7.695313-2.933594-10.628907 0l-8.40625 8.40625-19.746093-59.230469 59.230468 19.746094-8.40625 8.40625c-2.894531 2.894531-2.894531 7.734375 0 10.628906l34.007813 34.007813c2.894531 2.894531 7.734375 2.894531 10.628906 0s2.894531-7.734375 0-10.628907zm-117.039063-83.738281h-17.035156v-17.035156h17.035156zm0 0"/></svg>