<?xml version="1.0" encoding="iso-8859-1"?>
<!-- Generator: Adobe Illustrator 16.0.0, SVG Export Plug-In . SVG Version: 6.00 Build 0)  -->
<!DOCTYPE svg PUBLIC "-//W3C//DTD SVG 1.1//EN" "http://www.w3.org/Graphics/SVG/1.1/DTD/svg11.dtd">
<svg version="1.1" id="Capa_1" xmlns="http://www.w3.org/2000/svg" xmlns:xlink="http://www.w3.org/1999/xlink" x="0px" y="0px"
	 width="561.373px" height="561.373px" viewBox="0 0 561.373 561.373" style="enable-background:new 0 0 561.373 561.373;"
	 xml:space="preserve">
<g>
	<g>
		<path d="M505.629,224.316v183.945c-9.125-3.652-19.074-5.686-29.502-5.686c-43.85,0-79.398,35.549-79.398,79.398
			s35.549,79.398,79.398,79.398s79.398-35.549,79.398-79.398c0-0.021,0-0.043,0-0.064l0,0V224.316v-99.793h-49.896H304.428
			c0.648,5.79,1.012,11.662,1.012,17.623c0,30.092-8.5,58.235-23.203,82.17H505.629z"/>
		<path d="M250.608,261.41c-14.568,12.552-31.435,22.495-49.896,29.077v117.775c-9.125-3.652-19.073-5.686-29.501-5.686
			c-43.85,0-79.397,35.549-79.397,79.398s35.548,79.398,79.397,79.398c43.85,0,79.398-35.549,79.398-79.398c0-0.021,0-0.043,0-0.064
			l0,0V261.41z"/>
		<path d="M147.994,284.293c18.632,0,36.411-3.623,52.717-10.142c19.003-7.595,35.971-19.167,49.896-33.697
			c4.829-5.04,9.287-10.431,13.339-16.138c16.475-23.204,26.194-51.546,26.194-82.17c0-5.97-0.41-11.842-1.127-17.623
			C280.33,54.339,220.528,0,147.994,0C69.49,0,5.848,63.642,5.848,142.146C5.848,220.65,69.487,284.293,147.994,284.293z
			 M59.618,109.787h56.013V53.77h64.719v56.014h56.016v14.74v49.979h-35.655h-20.358v56.017h-64.719v-56.013H59.618V109.787z"/>
	</g>
</g>
<g>
</g>
<g>
</g>
<g>
</g>
<g>
</g>
<g>
</g>
<g>
</g>
<g>
</g>
<g>
</g>
<g>
</g>
<g>
</g>
<g>
</g>
<g>
</g>
<g>
</g>
<g>
</g>
<g>
</g>
</svg>
