<svg xmlns="http://www.w3.org/2000/svg" height="600pt" version="1.1" viewBox="0 -10 600 600" width="600pt">
<g id="surface1">
<path d="M 600 390 L 600 10 C 600 4.476562 595.523438 0 590 0 L 10 0 C 4.476562 0 0 4.476562 0 10 L 0 390 C 0 395.523438 4.476562 400 10 400 L 303 400 C 290.683594 459.953125 316.023438 521.367188 367.03125 555.191406 C 418.039062 589.015625 484.476562 588.460938 534.90625 553.789062 C 585.34375 519.117188 609.652344 457.285156 596.335938 397.546875 C 598.628906 395.707031 599.964844 392.933594 600 390 Z M 580 20 L 580 275.859375 L 497.070312 192.929688 C 493.550781 189.410156 487.984375 189.015625 484 192 L 369.082031 278.1875 L 166.328125 112.261719 C 164.039062 110.386719 161.03125 109.625 158.121094 110.179688 C 155.214844 110.734375 152.699219 112.554688 151.257812 115.140625 L 20 351.410156 L 20 20 Z M 27 380 L 162.929688 135.320312 L 369 304 C 341.085938 321.996094 319.902344 348.714844 308.75 380 Z M 450 560 C 378.203125 560 320 501.796875 320 430 C 320 358.203125 378.203125 300 450 300 C 521.796875 300 580 358.203125 580 430 C 579.917969 501.761719 521.761719 559.917969 450 560 Z M 450 280 C 428.570312 280.019531 407.390625 284.664062 387.921875 293.617188 L 385.007812 291.242188 L 489.058594 213.242188 L 580 304.140625 L 580 355.488281 C 553.3125 308.863281 503.726562 280.070312 450 280 Z M 450 280 " style=" stroke:none;fill-rule:nonzero;fill:rgb(0%,0%,0%);fill-opacity:1;" />
<path d="M 420 140 C 447.613281 140 470 117.613281 470 90 C 470 62.386719 447.613281 40 420 40 C 392.386719 40 370 62.386719 370 90 C 370.035156 117.601562 392.398438 139.964844 420 140 Z M 420 60 C 436.566406 60 450 73.433594 450 90 C 450 106.566406 436.566406 120 420 120 C 403.433594 120 390 106.566406 390 90 C 390 73.433594 403.433594 60 420 60 Z M 420 60 " style=" stroke:none;fill-rule:nonzero;fill:rgb(0%,0%,0%);fill-opacity:1;" />
<path d="M 460 330 L 440 330 L 440 420 L 350 420 L 350 440 L 440 440 L 440 520 L 460 520 L 460 440 L 550 440 L 550 420 L 460 420 Z M 460 330 " style=" stroke:none;fill-rule:nonzero;fill:rgb(0%,0%,0%);fill-opacity:1;" />
</g>
</svg>