<svg height="496pt" viewBox="0 0 496 496" width="496pt" xmlns="http://www.w3.org/2000/svg"><path d="m360 464c17.648438 0 32-14.351562 32-32s-14.351562-32-32-32-32 14.351562-32 32 14.351562 32 32 32zm0-48c8.824219 0 16 7.175781 16 16s-7.175781 16-16 16-16-7.175781-16-16 7.175781-16 16-16zm0 0"/><path d="m192 400c-17.648438 0-32 14.351562-32 32s14.351562 32 32 32 32-14.351562 32-32-14.351562-32-32-32zm0 48c-8.824219 0-16-7.175781-16-16s7.175781-16 16-16 16 7.175781 16 16-7.175781 16-16 16zm0 0"/><path d="m496 272v-240h-144.910156l.75-6.167969c.105468-.910156.160156-1.832031.160156-2.742187 0-12.730469-10.359375-23.089844-23.089844-23.089844h-15.726562l-5.160156 32h-64.046876l-5.167968-32h-15.730469c-12.71875 0-23.078125 10.359375-23.078125 23.089844 0 .910156.054688 1.832031.167969 2.773437l.734375 6.136719h-200.902344v240h230l1.910156 15.761719-10.054687 55.316406c-2.632813 14.441406-15.183594 24.921875-29.855469 24.921875-35.289062 0-64 28.710938-64 64s28.710938 64 64 64h1.265625c30.941406 0 57.421875-22.105469 62.941406-52.457031l19.792969-102.144531 19.777344 102.050781c5.535156 30.445312 32.015625 52.550781 62.957031 52.550781h1.265625c35.289062 0 64-28.710938 64-64s-28.710938-64-64-64c-14.671875 0-27.222656-10.480469-29.855469-24.910156l-10.054687-55.328125 1.910156-15.761719zm-216 40c-13.230469 0-24-10.769531-24-24s10.769531-24 24-24c13.144531 0 23.824219 10.625 23.976562 23.734375l-.054687.503906.039063.21875c-.257813 13.023438-10.882813 23.542969-23.960938 23.542969zm-56-264v16h-16v-16zm53.054688 176h-93.054688v-144h116.289062zm-5.054688-160v-16h16v16zm-16 0h-16v-16h16zm-64 0h-16v-16h16zm-32 0h-16v-16h16zm-32 0h-16v-16h16zm-32 0h-16v-16h16zm-32 0h-16v-16h16zm16 16v32h16v-32h72v144h-72v-96h-16v96h-64v-144zm-16 160v16h-16v-16zm16 0h16v16h-16zm32 0h16v16h-16zm32 0h16v16h-16zm32 0h16v16h-16zm32 0h16v16h-16zm32 0h34.480469l-1.402344 8.703125c-6.351563 1.121094-12.125 3.761719-17.070313 7.503906v-.207031h-16v-16zm105.273438-160h54.726562v104h16v-104h64v144h-64v-24h-16v24h-72.183594zm86.726562-16v-16h16v16zm-16 0h-16v-16h16zm-32 0h-16v-16h16zm0 176v16h-16v-16zm16 0h16v16h-16zm32 0h16v16h-16zm-106.128906 0h26.128906v16h-28.0625zm138.128906 16v-16h16v16zm16-192h-16v-16h16zm-128-16v16h-4.792969l1.9375-16zm-25.183594-32h2.105469c3.902344 0 7.078125 3.175781 7.078125 7.089844 0 .292968-.023438.589844-.054688.855468l-28.496093 235.101563c-5.035157-4.765625-11.28125-8.222656-18.242188-9.878906zm-22.816406 40.960938v-8.960938h1.449219zm-87.945312-32.976563c-.03125-.304687-.054688-.601563-.054688-.894531 0-3.914063 3.175781-7.089844 7.089844-7.089844h2.101562l2.585938 16h-10.746094zm-184.054688 24.015625v16h-16v-16zm-16 192h16v16h-16zm224.496094 200.585938c-4.160156 22.839843-24.015625 39.414062-47.230469 39.414062h-1.265625c-26.472656 0-48-21.527344-48-48s21.527344-48 48-48c22.40625 0 41.574219-16 45.59375-38.054688l7.167969-39.425781c4.046875 7.671875 10.429687 13.863281 18.292969 17.578125zm119.503906-56.585938c26.472656 0 48 21.527344 48 48s-21.527344 48-48 48h-1.265625c-23.207031 0-43.070313-16.574219-47.238281-39.503906l-22.039063-113.742188c7.535157-1.84375 14.230469-5.769531 19.421875-11.21875l5.527344 30.417969c4.019531 22.046875 23.1875 38.046875 45.59375 38.046875zm0 0"/><path d="m208 105.046875v93.898437l70.425781-46.945312zm16 29.90625 25.574219 17.046875-25.574219 17.046875zm0 0"/></svg>