<?xml version="1.0" encoding="iso-8859-1"?>
<!-- Generator: Adobe Illustrator 18.1.1, SVG Export Plug-In . SVG Version: 6.00 Build 0)  -->
<svg version="1.1" id="Capa_1" xmlns="http://www.w3.org/2000/svg" xmlns:xlink="http://www.w3.org/1999/xlink" x="0px" y="0px"
	 viewBox="0 0 25.451 25.451" style="enable-background:new 0 0 25.451 25.451;" xml:space="preserve">
<g>
	<g id="c71_play">
		<path d="M2.562,5.523V3.257H4.83v2.265H2.562z M7.169,5.523V3.257h2.27v2.265H7.169z M11.968,5.523V3.257h2.27v2.265H11.968z
			 M16.576,5.523V3.257h2.268v2.265H16.576z M20.99,5.523V3.257h2.27v2.265H20.99z M2.728,18.628V6.885h20.135v11.741H2.728V18.628z
			 M2.562,22.257v-2.271H4.83v2.271H2.562z M7.169,22.257v-2.271h2.27v2.271H7.169z M11.968,22.257v-2.271h2.27v2.271H11.968z
			 M16.576,22.257v-2.271h2.268v2.271H16.576z M20.99,22.257v-2.271h2.27v2.271H20.99z M24.879,2.194H0.572
			C0.257,2.194,0,2.404,0,2.667v20.118c0,0.257,0.257,0.472,0.572,0.472h24.307c0.316,0,0.572-0.215,0.572-0.472V2.667
			C25.451,2.404,25.195,2.194,24.879,2.194z"/>
		<path d="M10.313,8.476c0.067-0.031,0.145-0.022,0.205,0.022l6.382,4.074c0.043,0.038,0.07,0.095,0.07,0.151
			c0,0.059-0.027,0.114-0.07,0.151l-6.382,4.075c-0.037,0.027-0.078,0.042-0.122,0.042l-0.083-0.02
			c-0.065-0.029-0.108-0.099-0.108-0.171v-8.15C10.205,8.576,10.248,8.509,10.313,8.476z"/>
	</g>
	<g id="Capa_1_260_">
	</g>
</g>
<g>
</g>
<g>
</g>
<g>
</g>
<g>
</g>
<g>
</g>
<g>
</g>
<g>
</g>
<g>
</g>
<g>
</g>
<g>
</g>
<g>
</g>
<g>
</g>
<g>
</g>
<g>
</g>
<g>
</g>
</svg>
